<?xml version="1.0" encoding="UTF-8" standalone="no"?><!DOCTYPE svg PUBLIC "-//W3C//DTD SVG 1.1//EN" "http://www.w3.org/Graphics/SVG/1.1/DTD/svg11.dtd"><svg width="100%" height="100%" viewBox="0 0 64 64" version="1.1" xmlns="http://www.w3.org/2000/svg" xmlns:xlink="http://www.w3.org/1999/xlink" xml:space="preserve" xmlns:serif="http://www.serif.com/" style="fill-rule:evenodd;clip-rule:evenodd;stroke-linecap:round;stroke-linejoin:round;stroke-miterlimit:1.5;"><rect id="Artboard1" x="0" y="0" width="64" height="64" style="fill:none;"/><g id="Artboard11" serif:id="Artboard1"><path d="M16.947,12.775c-0.033,-0.247 7.989,21.489 7.989,21.489l-3.029,22.742c0.737,4.286 10.476,4.47 14.889,3.753c5.565,-0.904 10.487,-4.433 10.203,-7.917l-8.081,-20.413l7.212,-24.222c0.085,1.939 -6.249,5.743 -13.974,7.205c-6.822,1.29 -14.779,0.563 -15.209,-2.637Z" style="fill:#e8c17c;stroke:#000;stroke-width:2px;"/><path d="M16.947,12.775l7.989,21.489l-2.647,19.873c-1.159,-0.035 -4.436,1.411 -5.05,2.492l6.766,-22.043l-11.873,-21.973c1.298,-4.668 8.408,-8.067 16.796,-9.12c7.354,-0.924 17.041,1.064 17.202,4.714c0.075,1.716 -4.877,4.893 -11.372,6.614c-0.001,-0.03 0.087,-6.585 0.087,-6.585c-2.103,-2.25 -18.35,1.176 -17.898,4.539Z" style="fill:#c59744;stroke:#000;stroke-width:2px;"/><path d="M34.758,14.821c-0.844,0.223 -1.714,0.422 -2.602,0.591c-6.822,1.29 -14.779,0.563 -15.209,-2.637c-0.452,-3.363 15.795,-6.789 17.898,-4.539l-0.087,6.585Z" style="fill:#ba8e3e;stroke:#000;stroke-width:2px;"/><path d="M21.578,31.016c1.674,1.456 7.436,1.159 10.239,0.813c2.803,-0.345 8.381,-1.914 8.486,-2.943l0.432,4.661c-0.215,1.851 -4.385,3.12 -8.537,3.654c-4.153,0.535 -9.101,0.359 -10.244,-1.206l-0.376,-4.979Z" style="fill:#ba3e3e;stroke:#000;stroke-width:2px;"/><path d="M34.693,37.21l4.658,16.927l3.196,-5.511l-5.904,-11.938l-1.95,0.522Z" style="fill:#ba3e3e;stroke:#000;stroke-width:2px;"/><path d="M34.118,37.108l1.343,17.505l-4.872,-4.105l1.517,-13.231l2.012,-0.169Z" style="fill:#ba3e3e;stroke:#000;stroke-width:2px;"/><path d="M36.932,33.473c-0,0 8.016,0.342 10.068,1.778c1.965,1.377 3.109,5.387 2.238,6.843c-0.87,1.456 -5.431,2.88 -7.461,1.894c-2.031,-0.985 -4.724,-7.808 -4.724,-7.808l0.143,-1.311c-0,-0 4.728,3.912 6.059,4.766c0.551,0.353 1.803,0.555 1.929,0.356c0.126,-0.199 -0.627,-1.201 -1.172,-1.551c-1.333,-0.856 -6.827,-3.58 -6.827,-3.58l-0.253,-1.387Z" style="fill:#ba3e3e;stroke:#000;stroke-width:2px;"/><path d="M30.508,34.659c-0,0 -7.58,2.634 -9.13,4.601c-1.487,1.884 -1.428,6.053 -0.175,7.197c1.253,1.144 6.03,1.195 7.691,-0.333c1.662,-1.529 2.277,-8.838 2.277,-8.838l-0.514,-1.214c-0,-0 -3.403,5.107 -4.432,6.308c-0.425,0.496 -1.566,1.05 -1.744,0.896c-0.178,-0.154 0.254,-1.331 0.675,-1.823c1.031,-1.203 5.508,-5.393 5.508,-5.393l-0.156,-1.401Z" style="fill:#ba3e3e;stroke:#000;stroke-width:2px;"/><path d="M36.712,32.149l0.49,3.082c0.135,0.851 -0.446,1.651 -1.297,1.786l-3.292,0.524c-0.85,0.135 -1.651,-0.446 -1.786,-1.297l-0.49,-3.082c-0.135,-0.85 0.446,-1.65 1.296,-1.786l3.293,-0.523c0.85,-0.135 1.651,0.446 1.786,1.296Z" style="fill:#ba3e3e;stroke:#000;stroke-width:2px;"/></g></svg>